<?xml version="1.0" encoding="UTF-8"?>
<svg id="_レイヤー_1" data-name="レイヤー 1" xmlns="http://www.w3.org/2000/svg" xmlns:xlink="http://www.w3.org/1999/xlink" viewBox="0 0 314.02 241.21">
  <defs>
    <style>
      .cls-1 {
        fill: #8c8b8b;
      }

      .cls-2 {
        fill: #8cc994;
      }

      .cls-3 {
        fill: #fff;
      }

      .cls-4 {
        fill: url(#_名称未設定グラデーション_125);
      }
    </style>
    <linearGradient id="_名称未設定グラデーション_125" data-name="名称未設定グラデーション 125" x1="157.61" y1="61.52" x2="157.61" y2="225.35" gradientUnits="userSpaceOnUse">
      <stop offset="0" stop-color="#231815"/>
      <stop offset=".17" stop-color="#261b18" stop-opacity="1"/>
      <stop offset=".31" stop-color="#302523" stop-opacity="1"/>
      <stop offset=".44" stop-color="#413735" stop-opacity=".99"/>
      <stop offset=".56" stop-color="#58504e" stop-opacity=".99"/>
      <stop offset=".67" stop-color="#77716f" stop-opacity=".98"/>
      <stop offset=".78" stop-color="#9d9897" stop-opacity=".97"/>
      <stop offset=".89" stop-color="#cac7c6" stop-opacity=".96"/>
      <stop offset="1" stop-color="#fcfcfc" stop-opacity=".95"/>
      <stop offset="1" stop-color="#fff" stop-opacity=".95"/>
    </linearGradient>
  </defs>
  <g>
    <path class="cls-1" d="M279.68,119.35h-15c0-43.53-48.3-78.94-107.67-78.94S49.34,75.82,49.34,119.35h-15c0-25.53,13.04-49.37,36.71-67.14,23.03-17.29,53.56-26.81,85.96-26.81s62.93,9.52,85.96,26.81c23.67,17.77,36.71,41.61,36.71,67.14Z"/>
    <path class="cls-2" d="M306.01,141.22c-12.98-26.68-32.88-42.7-47.4-56.1-14.52-13.4-23.03-22.03-46.88-36.34-27.86-16.72-63.15-13.22-72.11-11.98-12.03,1.5-25.37,4.95-37.33,12.13-23.85,14.31-32.36,22.94-46.88,36.34-14.52,13.4-34.42,29.41-47.4,56.1-10.94,22.49-10.17,42.48-.75,64.67,5.93,13.96,22.03,29.83,60,33.18,27.09,2.39,62.05,2.02,79.86,1.62h.47s61.2,1.58,99.17-1.77c37.97-3.35,54.07-19.22,60-33.18,9.42-22.19,10.19-42.17-.75-64.67Z"/>
    <g>
      <rect class="cls-1" x="184.19" y="15.95" width="9.35" height="25.5" transform="translate(125.87 209.04) rotate(-79.39)"/>
      <rect class="cls-1" x="166.99" y="3.4" width="9.35" height="27.39" transform="translate(20.34 99.94) rotate(-34.39)"/>
      <path class="cls-1" d="M166.37,21.28c5.81,1.09,11.43-2.75,12.52-8.57s-2.75-11.43-8.57-12.52c-5.81-1.09-11.43,2.75-12.52,8.57s2.75,11.43,8.57,12.52ZM168.6,9.38c.75.14,1.24.86,1.1,1.61s-.86,1.24-1.61,1.1-1.24-.86-1.1-1.61.86-1.24,1.6-1.1Z"/>
    </g>
    <g>
      <rect class="cls-1" x="112.17" y="22.9" width="25.5" height="9.35" transform="translate(-2.14 12.72) rotate(-5.78)"/>
      <rect class="cls-1" x="129.35" y="12.8" width="27.39" height="9.35" transform="translate(39.05 117.24) rotate(-50.78)"/>
      <path class="cls-1" d="M147.96,22.08c-5.89.6-11.16-3.71-11.75-9.59s3.71-11.16,9.59-11.75,11.16,3.71,11.75,9.59-3.71,11.16-9.59,11.75ZM146.75,10.04c-.75.08-1.31.75-1.23,1.51s.75,1.31,1.51,1.23,1.31-.75,1.23-1.51-.75-1.31-1.51-1.23Z"/>
    </g>
  </g>
  <g>
    <g>
      <g>
        <path class="cls-3" d="M216.45,61.56c-.54-.85-37.08,14.4-37.08,14.4l2.3,6.16-19.4,1.22v-21.24l-48.96-.54.9,25.02-29.52,1.8,2.7,45.54,27.9-2.16v4.32s-14.35,2.44-28.24,14.96c-14.58,13.14-15.82,36.67-9.6,48.71,18.42,35.69,83.38,11.2,83.38,11.2v-41.4s17.98-3.69,20.14,7.68c1.33,6.96-13.48,16.08-13.48,16.08l29.34,32.04s22.93-12.51,29.39-28.08c4.37-10.56,10.67-28.17-2.39-48.41-13.11-20.33-62.1-18-62.1-18v-4.14l24.48-1.26.54-29.88,11.16,35.64s42.88-15.24,43.41-16.3-24.33-52.5-24.87-53.35ZM116.55,181.97s-8.15,3.66-8.41-2.53c-.26-6.19,8.41-7.19,8.41-7.19v9.72Z"/>
        <path class="cls-3" d="M196.2,229.11l-32.37-35.35v19.27l-1.94.73c-.68.26-16.84,6.29-35.58,7.96-25.58,2.28-43.4-4.83-51.53-20.6-7.17-13.9-4.72-38.8,10.26-52.31,8.02-7.23,16.16-11.25,21.89-13.4l-22.36,1.73-3.06-51.58,29.59-1.8-.91-25.24,55.07.61v21.01l12.17-.77-1.9-5.07,2.67-1.11c.09-.04,9.26-3.86,18.37-7.53,5.37-2.16,9.67-3.85,12.79-5.02,6.08-2.27,8.13-3.04,9.61-.68.49.79,7.97,16.3,13,26.91,13,27.4,12.87,27.66,12.01,29.38-.66,1.33-1.04,2.08-40.62,16.2,11.05,3.29,18.75,8.24,22.97,14.78,14.51,22.51,6.19,42.61,2.64,51.19-6.78,16.37-29.75,29.04-30.72,29.57l-2.06,1.12ZM172.05,193.85l25.36,27.69c5.58-3.38,21.15-13.62,26.04-25.42,3.46-8.37,10.67-25.77-2.14-45.64-9.54-14.79-43.04-17.35-59.43-16.63l-2.53.11-.61-2.79v-7.31l24.53-1.26.68-37.62-24.67,1.55v-21.47l-42.85-.47.89,24.8-29.45,1.8,2.34,39.5,28.08-2.17v10.09l-2.5.42c-.13.02-13.72,2.5-26.74,14.23-13.63,12.28-14.39,34.55-8.95,45.1,15.27,29.59,67.01,14.05,77.72,10.45v-41.72l2.4-.49c1.19-.25,11.82-2.25,18.6,2.29,2.75,1.84,4.46,4.45,5.09,7.76.76,4-1.66,8.52-7.2,13.45-1.65,1.47-3.32,2.75-4.67,3.73ZM163.83,172.15v19.9l2.08-1.29c5.47-3.38,12.72-9.76,12.11-12.97-.33-1.72-1.13-2.96-2.53-3.9-3.08-2.07-8.29-2.08-11.67-1.75ZM183.02,128.62c1.83.19,3.72.42,5.65.7,2.01.29,3.95.62,5.81.98l-5.06-16.17-.26,14.18-6.14.32ZM184.14,77.22l15.7,50.12c13.24-4.73,31.58-11.4,37.77-13.96-3.64-8.67-18.61-39.9-22.77-48.35-4.92,1.68-18.08,6.96-30.7,12.19ZM183.19,77.62l.84,2.24.05-2.61c-.3.12-.59.25-.89.37ZM111.95,186.05c-1.33,0-2.7-.26-3.89-1-1.26-.78-2.78-2.36-2.91-5.48-.3-7.1,7.11-9.84,11.06-10.29l3.34-.38v15.03l-1.77.79c-.66.3-3.17,1.33-5.83,1.33ZM113.55,176.23c-1.3.62-2.48,1.6-2.41,3.09.02.42.1.63.12.67.28.16,1.22.1,2.29-.16v-3.6Z"/>
      </g>
      <rect class="cls-3" x="113.55" y="172.25" width="6" height="9.72"/>
    </g>
    <path class="cls-4" d="M216.45,61.56c-.54-.85-37.08,14.4-37.08,14.4l2.3,6.16-19.4,1.22v-21.24l-48.96-.54.9,25.02-29.52,1.8,2.7,45.54,27.9-2.16v4.32s-14.35,2.44-28.24,14.96c-14.58,13.14-15.82,36.67-9.6,48.71,18.42,35.69,83.38,11.2,83.38,11.2v-41.4s17.98-3.69,20.14,7.68c1.33,6.96-13.48,16.08-13.48,16.08l29.34,32.04s22.93-12.51,29.39-28.08c4.37-10.56,10.67-28.17-2.39-48.41-13.11-20.33-62.1-18-62.1-18v-4.14l24.48-1.26.54-29.88,11.16,35.64s42.88-15.24,43.41-16.3-24.33-52.5-24.87-53.35ZM116.55,181.97s-8.15,3.66-8.41-2.53c-.26-6.19,8.41-7.19,8.41-7.19v9.72Z"/>
  </g>
  <path class="cls-3" d="M130.22,178.97c-13.49,2.78-14.91,5.03-16.67,26.39-1.75-21.36-3.17-23.61-16.67-26.39,13.49-2.78,14.91-5.03,16.67-26.39,1.75,21.36,3.17,23.61,16.67,26.39Z"/>
</svg>